<svg version="1.1" xmlns="http://www.w3.org/2000/svg" style="display: block;" viewBox="0 0 2048 2048" width="640" height="640" preserveAspectRatio="none">
<path transform="translate(0,0)" fill="rgb(254,253,253)" d="M 1001.53 0 L 1028.66 0 L 1029.75 0.134537 C 1048.27 2.28202 1070.03 1.34755 1088.96 2.58086 C 1129.81 5.41935 1170.5 10.354 1210.85 17.3652 C 1457.13 62.3762 1678.48 195.803 1833.3 392.56 C 1940.59 526.64 2011.89 704.84 2037.27 874.011 C 2041.56 902.531 2044.59 931.228 2046.33 960.016 C 2046.99 971.712 2046.51 994.136 2048 1004.32 L 2048 1054.95 C 2047.95 1055.27 2047.91 1055.59 2047.86 1055.92 C 2046.71 1108.34 2042.37 1159.17 2032.72 1210.85 C 1987.74 1456.18 1854.71 1676.63 1658.63 1830.78 C 1517.05 1942.65 1347.63 2013.8 1168.62 2036.55 C 1133.4 2040.88 1098.03 2043.94 1062.59 2045.74 C 1050.23 2046.38 1019.72 2045.74 1008.89 2048 L 958.259 2048 C 948.591 2046.16 938.149 2046.52 928.312 2045.93 C 731.88 2034.19 536.903 1948.54 383.893 1826.54 C 191.339 1674.13 60.6696 1456.99 16.1735 1215.48 C 9.24697 1177.73 4.55777 1139.59 2.13042 1101.28 C 1.14305 1087.78 1.63755 1070.49 0.136443 1057.86 L 0 1056.79 L 0 992.477 C 1.35625 984.263 1.33128 959.663 1.98425 949.393 C 3.72329 919.855 6.83118 890.412 11.2979 861.162 C 38.1738 687.253 110.284 523.463 220.403 386.203 C 373.593 194.236 590.217 63.1851 831.356 16.5946 C 870.698 9.50955 910.415 4.69364 950.311 2.17071 C 966.709 1.11399 984.113 2.11814 1000.42 0.144236 L 1001.53 0 z M 1055.38 1974.84 C 1115.68 1971.47 1182.67 1964.32 1241.27 1951.48 C 1442.99 1906.23 1625.66 1799.4 1764.02 1645.79 C 1915.1 1474.65 1999.51 1254.84 2001.83 1026.57 C 2001.84 1011.64 2002.12 994.535 2001.24 979.763 C 1987.14 727.224 1872.14 490.947 1682.1 324.034 C 1519.72 181.219 1339.31 100.123 1123.52 79.654 C 1081.87 75.7041 1036.55 72.0396 994.809 73.4381 C 935.405 77.1855 881.869 80.8909 822.997 92.8502 C 615.563 136.637 427.379 245.129 285.547 402.702 C 248.284 444.994 214.757 490.435 185.34 538.515 C 102.636 669.078 54.896 818.715 46.7051 973.051 C 45.0659 1006 45.3378 1049.61 47.4397 1082.36 C 64.2697 1329.39 177.519 1559.9 362.762 1724.18 C 532.591 1873.17 736.877 1962.2 962.991 1974.23 C 991.309 1975.74 1026.52 1975.06 1055.38 1974.84 z"/>
<path transform="translate(0,0)" fill="rgb(254,253,253)" d="M 1641.74 635.446 C 1681.92 631.22 1719.1 661.996 1723.33 701.818 C 1725.57 722.823 1725.52 743.38 1725.82 764.478 C 1726.24 804.167 1726.39 843.857 1726.28 883.548 L 1726.32 1026.2 C 1726.32 1052.05 1726.75 1079.08 1725.8 1104.81 C 1725.3 1118.39 1719.3 1135.16 1718.13 1150.5 L 1718.01 1152.2 C 1743.64 1152.44 1769.28 1152.48 1794.92 1152.34 C 1804.49 1152.34 1826.12 1151.81 1834.44 1153.4 C 1840.55 1161.37 1834.26 1166.82 1827.4 1170.58 C 1755.04 1210.24 1679.2 1249.39 1625.74 1314.06 C 1614.12 1328.1 1607.56 1338.82 1597.83 1354.23 C 1585.1 1310.39 1596.99 1263.94 1583.35 1221.07 C 1572.91 1188.27 1549.33 1173.65 1520.12 1159.16 L 1608.21 1159.01 C 1612.4 1135.11 1611.12 1112.1 1611.11 1087.84 L 1611.06 990.409 L 1611.11 813.271 C 1611.1 781.012 1612.2 747.781 1610.38 715.686 C 1607.99 673.816 1582.05 664.484 1548.37 654.606 C 1581.05 645.983 1607.72 637.787 1641.74 635.446 z"/>
<path transform="translate(0,0)" fill="rgb(254,253,253)" d="M 450.672 644.775 C 458.44 653.497 455.653 710.496 455.697 726.025 C 455.793 759.828 459.761 790.776 485.36 815.52 C 491.441 821.397 499.071 824.941 504.479 830.385 L 503.706 833.512 C 499.542 838.099 484.9 836.591 478.566 836.716 C 449.721 837.284 436.233 842.954 435.244 874.522 C 434.452 899.791 434.587 926.026 434.632 951.833 L 434.986 1081.7 L 435.031 1197.63 C 435.027 1230.86 431.981 1276.43 443.787 1306.98 C 461.704 1353.34 507.626 1327.18 538.373 1313.13 C 536.932 1314.5 535.463 1315.85 533.968 1317.17 C 523.34 1326.48 510.49 1333.92 497.912 1340.05 C 458.525 1359.25 430.588 1362.55 387.982 1359.75 C 317.197 1349.78 321.817 1282.37 321.526 1227.52 L 321.165 1141.04 L 321.103 843.117 L 257.398 843.206 C 249.805 843.211 216.85 844.702 212.775 840.101 C 211.221 828.17 230.175 823.091 239.196 818.39 C 327.299 772.481 396.334 729.993 450.672 644.775 z"/>
<path transform="translate(0,0)" fill="rgb(254,253,253)" d="M 1582.49 1440.39 C 1622.67 1434.31 1675.16 1427.88 1715.65 1424.15 C 1699.64 1462.61 1676.49 1508.32 1657.91 1545.65 C 1646.82 1531.53 1632.3 1519.8 1621.49 1505.37 C 1541.45 1561.51 1428.47 1620.59 1335.24 1650.84 C 1310.56 1658.66 1285.69 1665.85 1260.65 1672.4 C 1249.34 1675.27 1233.49 1678.32 1222.96 1681.35 C 1215.24 1687.45 1143.22 1694.92 1129.34 1696.79 C 1125.28 1697.33 1115.75 1698.33 1111.32 1698.69 C 1100.2 1699.6 1088.6 1699.04 1077.38 1699.6 C 1069.1 1700.01 1060.71 1701.41 1052.45 1702.2 C 1001.04 1699.06 949.959 1697.95 899.118 1687.67 C 892.005 1686.24 861.367 1682.17 856.866 1678.46 C 729.099 1647.46 617.682 1606.12 511.084 1526.4 C 490.171 1510.77 473.444 1495.73 453.587 1479.14 C 481.982 1492.21 506.364 1505.83 533.763 1520.57 C 569.666 1540.27 605.954 1559.26 642.604 1577.53 C 687.948 1600.44 737.868 1624.78 786.12 1639.71 C 870.492 1665.82 959.524 1677.89 1047.71 1676.13 C 1065.57 1675.78 1084.1 1676.5 1102 1675.44 C 1188.94 1669.63 1274.54 1651.01 1356.05 1620.21 C 1421.52 1596.73 1484.34 1566.42 1543.45 1529.76 C 1563.28 1517.64 1591.25 1495.64 1608.56 1486.32 L 1582.49 1440.39 z"/>
<path transform="translate(0,0)" fill="rgb(0,0,0)" d="M 856.866 1678.46 C 861.872 1679.13 866.215 1680.17 871.107 1681.06 C 945.989 1694.76 1030.39 1701.98 1106.38 1696.31 C 1131.65 1694.46 1156.84 1691.68 1181.91 1687.97 C 1191.57 1686.51 1214.86 1681.83 1222.96 1681.35 C 1215.24 1687.45 1143.22 1694.92 1129.34 1696.79 C 1125.28 1697.33 1115.75 1698.33 1111.32 1698.69 C 1100.2 1699.6 1088.6 1699.04 1077.38 1699.6 C 1069.1 1700.01 1060.71 1701.41 1052.45 1702.2 C 1001.04 1699.06 949.959 1697.95 899.118 1687.67 C 892.005 1686.24 861.367 1682.17 856.866 1678.46 z"/>
<path transform="translate(0,0)" fill="rgb(254,253,253)" d="M 1004.98 327.441 C 1028.59 325.807 1052.37 327.773 1075.81 328.997 C 1266.24 338.943 1451.45 406.996 1603.99 521.315 C 1610.3 526.043 1620.86 532.127 1624.64 538.635 C 1625.23 539.664 1623.58 547.455 1622.24 548.601 C 1617.14 549.744 1604.59 544.815 1599.55 541.74 C 1580.75 530.268 1560.81 515.457 1542.44 503.42 C 1507.16 480.124 1470.34 459.247 1432.24 440.933 C 1290.05 372.189 1132.79 340.51 975.078 348.843 C 944.634 350.65 912.229 355.203 882.041 359.622 C 716.945 390.457 605.027 448.976 465.776 537.513 C 474.339 550.776 484.506 570.351 492.362 584.558 C 449.348 589.222 403.665 597.332 360.791 600.341 C 381.29 561.294 399.243 519.779 419.595 480.026 C 425.512 488.613 447.822 514.332 455.061 521.589 C 482.731 501.039 519.327 479.375 549.221 462.226 C 661.84 396.168 786.338 352.875 915.645 334.807 C 945.963 330.811 974.484 329.288 1004.98 327.441 z"/>
</svg>